<?xml version="1.0" encoding="UTF-8"?>
<svg xmlns="http://www.w3.org/2000/svg" width="287" height="120" viewBox="0 0 287 143" fill="none">
  <g clip-path="url(#clip0_101_19)">
    <path d="M50.5773 124.272L39.9706 120.269L51.7809 88.9689L62.6016 93.0518C65.7093 94.2244 68.1423 95.8582 69.9008 97.9534C71.6734 100.042 72.7206 102.48 73.0425 105.267C73.3644 108.054 72.9122 111.073 71.6858 114.323C70.4555 117.583 68.792 120.157 66.6953 122.043C64.6088 123.932 62.193 125.075 59.448 125.471C56.7131 125.871 53.7563 125.471 50.5773 124.272ZM47.4919 117.503L52.1533 119.262C54.3338 120.084 56.3024 120.373 58.0593 120.128C59.8201 119.873 61.3671 119.089 62.7005 117.777C64.0377 116.454 65.158 114.595 66.0614 112.201C66.9649 109.806 67.3478 107.681 67.2101 105.825C67.0762 103.959 66.439 102.362 65.2984 101.036C64.1718 99.7026 62.5488 98.6363 60.4295 97.8367L55.6 96.0144L47.4919 117.503Z" fill="#231F20"></path>
    <path d="M91.5818 102.12L83.3561 134.548L77.4818 133.058L85.7075 100.63L91.5818 102.12Z" fill="#231F20"></path>
    <path d="M120.872 118.011C120.72 117.1 120.453 116.268 120.072 115.513C119.702 114.749 119.222 114.074 118.631 113.489C118.05 112.905 117.355 112.432 116.547 112.07C115.74 111.698 114.84 111.445 113.848 111.311C112.067 111.071 110.42 111.304 108.907 112.012C107.394 112.72 106.121 113.889 105.088 115.519C104.067 117.14 103.389 119.191 103.054 121.673C102.717 124.177 102.825 126.351 103.378 128.195C103.932 130.039 104.849 131.509 106.129 132.604C107.412 133.689 108.981 134.357 110.837 134.607C112.521 134.835 114.021 134.707 115.339 134.226C116.668 133.746 117.746 132.957 118.576 131.86C119.406 130.752 119.93 129.394 120.147 127.786L121.479 128.18L112.478 126.966L113.111 122.272L126.564 124.086L126.026 128.068C125.644 130.907 124.708 133.281 123.22 135.19C121.732 137.099 119.854 138.472 117.587 139.309C115.322 140.135 112.819 140.364 110.078 139.994C107.023 139.582 104.434 138.535 102.309 136.853C100.197 135.161 98.664 132.96 97.711 130.249C96.7702 127.529 96.5357 124.42 97.0073 120.924C97.3683 118.247 98.0685 115.908 99.1078 113.905C100.158 111.904 101.467 110.262 103.036 108.979C104.606 107.685 106.365 106.78 108.314 106.262C110.265 105.734 112.324 105.616 114.494 105.909C116.328 106.156 118.003 106.657 119.516 107.411C121.031 108.153 122.338 109.099 123.436 110.247C124.544 111.396 125.407 112.7 126.024 114.156C126.641 115.613 126.963 117.173 126.992 118.836L120.872 118.011Z" fill="#231F20"></path>
    <path d="M142.769 108.366L142.109 141.814L136.05 141.694L136.71 108.246L142.769 108.366Z" fill="#231F20"></path>
    <path d="M150.761 113.749L150.321 108.688L176.913 106.376L177.353 111.437L167.052 112.333L169.51 140.6L163.521 141.121L161.063 112.853L150.761 113.749Z" fill="#231F20"></path>
    <path d="M195.521 136.887L189.23 138.391L192.908 103.115L200.184 101.376L219.432 131.172L213.141 132.676L198.268 108.888L198.014 108.949L195.521 136.887ZM192.679 124.08L209.837 119.979L210.969 124.713L193.81 128.815L192.679 124.08Z" fill="#231F20"></path>
    <path d="M229.787 127.551L217.546 96.4169L223.186 94.1993L233.568 120.606L247.281 115.215L249.14 119.942L229.787 127.551Z" fill="#231F20"></path>
    <path d="M1.21875 75V9.54546H29.5994C34.5852 9.54546 38.772 10.2166 42.1598 11.559C45.5689 12.9013 48.1364 14.7976 49.8622 17.2479C51.6094 19.6982 52.483 22.5852 52.483 25.9091C52.483 28.3168 51.9503 30.5114 50.8849 32.4929C49.8409 34.4744 48.3707 36.1364 46.4744 37.4787C44.5781 38.7997 42.3622 39.7159 39.8267 40.2273V40.8665C42.6392 40.973 45.196 41.6868 47.4972 43.0078C49.7983 44.3075 51.6307 46.108 52.9943 48.4091C54.358 50.6889 55.0398 53.3736 55.0398 56.4631C55.0398 60.0426 54.1023 63.228 52.2273 66.0192C50.3736 68.8104 47.7315 71.005 44.3011 72.603C40.8707 74.201 36.7798 75 32.0284 75H1.21875ZM18.9886 60.8097H27.2983C30.2813 60.8097 32.5185 60.2557 34.0099 59.1477C35.5014 58.0185 36.2472 56.3565 36.2472 54.1619C36.2472 52.6278 35.8956 51.3281 35.1925 50.2628C34.4893 49.1974 33.4879 48.3878 32.1882 47.8338C30.9098 47.2798 29.3651 47.0028 27.554 47.0028H18.9886V60.8097ZM18.9886 36.0085H26.2756C27.831 36.0085 29.2053 35.7635 30.3984 35.2734C31.5916 34.7834 32.5185 34.0803 33.179 33.1641C33.8608 32.2266 34.2017 31.0867 34.2017 29.7443C34.2017 27.7202 33.4773 26.1754 32.0284 25.1101C30.5795 24.0234 28.7472 23.4801 26.5312 23.4801H18.9886V36.0085Z" fill="#231F20"></path>
    <path d="M75.2706 75.7671C72.1385 75.7671 69.3686 75.2557 66.9609 74.233C64.5746 73.1889 62.6996 71.6122 61.3359 69.5028C59.9723 67.3935 59.2905 64.7088 59.2905 61.4489C59.2905 58.7642 59.7486 56.4737 60.6648 54.5774C61.581 52.6598 62.8594 51.0938 64.5 49.8793C66.1406 48.6648 68.0476 47.7379 70.2209 47.0987C72.4155 46.4595 74.7805 46.044 77.3161 45.8523C80.0646 45.6392 82.2699 45.3835 83.9318 45.0852C85.6151 44.7656 86.8295 44.3288 87.5753 43.7749C88.321 43.1996 88.6939 42.4432 88.6939 41.5057V41.3778C88.6939 40.0994 88.2038 39.1193 87.2237 38.4375C86.2436 37.7557 84.9865 37.4148 83.4524 37.4148C81.7692 37.4148 80.3949 37.7876 79.3295 38.5334C78.2855 39.2578 77.657 40.3764 77.4439 41.8892H61.2081C61.4212 38.9063 62.3693 36.1577 64.0526 33.6435C65.7571 31.108 68.2393 29.0838 71.4993 27.571C74.7592 26.0369 78.8288 25.2699 83.7081 25.2699C87.2237 25.2699 90.3771 25.6854 93.1683 26.5163C95.9595 27.326 98.3352 28.4659 100.295 29.9361C102.256 31.3849 103.747 33.0895 104.77 35.0497C105.814 36.9886 106.336 39.098 106.336 41.3778V75H89.8445V68.0966H89.4609C88.4808 69.929 87.2876 71.4098 85.8814 72.5391C84.4965 73.6683 82.9091 74.4886 81.1193 75C79.3509 75.5114 77.4013 75.7671 75.2706 75.7671ZM81.0234 64.6449C82.3658 64.6449 83.6229 64.3679 84.7947 63.8139C85.9879 63.2599 86.9574 62.4609 87.7031 61.4169C88.4489 60.3729 88.8217 59.1051 88.8217 57.6136V53.5227C88.353 53.7145 87.8523 53.8956 87.3196 54.0661C86.8082 54.2365 86.2543 54.3963 85.6577 54.5455C85.0824 54.6946 84.4645 54.8331 83.804 54.9609C83.1648 55.0888 82.4936 55.206 81.7905 55.3125C80.4268 55.5256 79.3082 55.8771 78.4347 56.3672C77.5824 56.8359 76.9432 57.4219 76.517 58.125C76.1122 58.8068 75.9098 59.5739 75.9098 60.4261C75.9098 61.7898 76.3892 62.8338 77.348 63.5582C78.3068 64.2827 79.532 64.6449 81.0234 64.6449ZM84.2195 20.7955C82.3018 20.7955 80.544 20.3374 78.946 19.4212C77.3693 18.4837 76.1016 17.2479 75.1428 15.7138C74.2053 14.1584 73.7365 12.4432 73.7365 10.5682C73.7365 8.69319 74.2053 6.98864 75.1428 5.45455C76.1016 3.89915 77.3693 2.66336 78.946 1.74716C80.544 0.809662 82.3018 0.340912 84.2195 0.340912C86.1371 0.340912 87.8842 0.809662 89.4609 1.74716C91.0589 2.66336 92.3267 3.89915 93.2642 5.45455C94.223 6.98864 94.7024 8.69319 94.7024 10.5682C94.7024 12.4432 94.223 14.1584 93.2642 15.7138C92.3267 17.2479 91.0589 18.4837 89.4609 19.4212C87.8842 20.3374 86.1371 20.7955 84.2195 20.7955ZM84.2195 14.5313C85.3913 14.5099 86.3821 14.1158 87.1918 13.3487C88.0227 12.5817 88.4382 11.6548 88.4382 10.5682C88.4382 9.48154 88.0227 8.54404 87.1918 7.75569C86.3821 6.96733 85.3913 6.58381 84.2195 6.60512C83.0476 6.62643 82.0462 7.0206 81.2152 7.78765C80.4055 8.55469 80.0007 9.48154 80.0007 10.5682C80.0007 11.6548 80.4055 12.5923 81.2152 13.3807C82.0462 14.169 83.0476 14.5526 84.2195 14.5313Z" fill="#231F20"></path>
    <path d="M114.765 75V25.9091H131.896V35.2415H132.407C133.302 31.7898 134.719 29.2649 136.658 27.6669C138.618 26.0689 140.909 25.2699 143.53 25.2699C144.297 25.2699 145.053 25.3338 145.799 25.4617C146.566 25.5682 147.301 25.728 148.004 25.9411V40.9943C147.131 40.696 146.055 40.4723 144.776 40.3232C143.498 40.174 142.4 40.0994 141.484 40.0994C139.758 40.0994 138.203 40.4936 136.818 41.282C135.454 42.049 134.378 43.1357 133.59 44.5419C132.802 45.9269 132.407 47.5568 132.407 49.4318V75H114.765Z" fill="#231F20"></path>
    <path d="M171.431 9.54546V75H153.789V9.54546H171.431Z" fill="#231F20"></path>
    <path d="M204.07 75.8949C198.744 75.8949 194.184 74.8402 190.391 72.7308C186.599 70.6001 183.69 67.6385 181.666 63.8459C179.642 60.032 178.63 55.6108 178.63 50.5824C178.63 45.554 179.642 41.1435 181.666 37.3509C183.69 33.5369 186.599 30.5753 190.391 28.4659C194.184 26.3352 198.744 25.2699 204.07 25.2699C209.397 25.2699 213.957 26.3352 217.749 28.4659C221.542 30.5753 224.45 33.5369 226.474 37.3509C228.499 41.1435 229.511 45.554 229.511 50.5824C229.511 55.6108 228.499 60.032 226.474 63.8459C224.45 67.6385 221.542 70.6001 217.749 72.7308C213.957 74.8402 209.397 75.8949 204.07 75.8949ZM204.198 62.8551C205.69 62.8551 206.979 62.3544 208.065 61.353C209.152 60.3516 209.994 58.924 210.59 57.0703C211.187 55.2166 211.485 53.0114 211.485 50.4546C211.485 47.8764 211.187 45.6712 210.59 43.8388C209.994 41.9851 209.152 40.5575 208.065 39.5561C206.979 38.5547 205.69 38.054 204.198 38.054C202.621 38.054 201.268 38.5547 200.139 39.5561C199.01 40.5575 198.147 41.9851 197.55 43.8388C196.954 45.6712 196.656 47.8764 196.656 50.4546C196.656 53.0114 196.954 55.2166 197.55 57.0703C198.147 58.924 199.01 60.3516 200.139 61.353C201.268 62.3544 202.621 62.8551 204.198 62.8551Z" fill="#231F20"></path>
    <path d="M260.32 94.4318C255.398 94.4318 251.18 93.7287 247.664 92.3224C244.17 90.9375 241.453 89.0199 239.514 86.5696C237.597 84.1406 236.521 81.3494 236.286 78.196H253.289C253.46 79.2401 253.886 80.0817 254.567 80.7209C255.249 81.3601 256.123 81.8182 257.188 82.0952C258.275 82.3935 259.489 82.5426 260.832 82.5426C263.111 82.5426 264.997 81.9886 266.489 80.8807C268.001 79.7727 268.758 77.7699 268.758 74.8722V66.5625H268.246C267.607 68.2244 266.627 69.6413 265.306 70.8132C263.985 71.9638 262.398 72.848 260.544 73.4659C258.69 74.0625 256.656 74.3608 254.44 74.3608C250.945 74.3608 247.728 73.5511 244.788 71.9318C241.869 70.3125 239.525 67.745 237.756 64.2294C236.009 60.7138 235.136 56.1222 235.136 50.4546C235.136 44.5313 236.052 39.7159 237.884 36.0085C239.738 32.3011 242.124 29.5845 245.043 27.8587C247.984 26.1328 251.073 25.2699 254.312 25.2699C256.741 25.2699 258.871 25.696 260.704 26.5483C262.536 27.3793 264.07 28.4979 265.306 29.9041C266.542 31.2891 267.479 32.8125 268.119 34.4744H268.502V25.9091H286.144V74.8722C286.144 79.027 285.068 82.5533 282.916 85.451C280.786 88.37 277.781 90.5966 273.903 92.1307C270.026 93.6648 265.498 94.4318 260.32 94.4318ZM260.96 61.8324C262.579 61.8324 263.964 61.3849 265.114 60.4901C266.286 59.5739 267.181 58.2742 267.799 56.5909C268.438 54.8864 268.758 52.8409 268.758 50.4546C268.758 48.0256 268.438 45.9482 267.799 44.2223C267.181 42.4752 266.286 41.1435 265.114 40.2273C263.964 39.2898 262.579 38.821 260.96 38.821C259.34 38.821 257.955 39.2898 256.805 40.2273C255.675 41.1435 254.802 42.4752 254.184 44.2223C253.587 45.9482 253.289 48.0256 253.289 50.4546C253.289 52.8835 253.587 54.9503 254.184 56.6548C254.802 58.3381 255.675 59.6271 256.805 60.522C257.955 61.3956 259.34 61.8324 260.96 61.8324Z" fill="#231F20"></path>
  </g>
  <defs>
    <clipPath id="clip0_101_19">
      <rect width="287" height="143" fill="white"></rect>
    </clipPath>
  </defs>
</svg>
