<?xml version="1.0" encoding="UTF-8"?>
<svg xmlns="http://www.w3.org/2000/svg" width="166" height="40" viewBox="0 0 2466 540" fill="none">
  <path d="M332.182 54C323.002 54 309.541 56.6397 297.974 64.9668C285.7 73.8046 276.545 88.4122 276.545 109.636V144.497C276.545 148.062 277.73 153.728 280.874 158.095C283.506 161.752 288.018 165.342 297.381 165.342C306.745 165.342 311.257 161.752 313.889 158.095C317.032 153.728 318.217 148.071 318.217 144.506C318.217 136.824 324.443 130.597 332.126 130.597C339.807 130.597 346.035 136.824 346.035 144.506C346.035 152.523 343.743 164.238 336.466 174.349C328.674 185.169 315.814 193.16 297.381 193.16C288.46 193.16 280.841 191.287 274.473 188.128C270.494 219.075 258.88 260.632 224.983 294.527C194.746 324.766 179.946 362.187 172.643 391.398C168.971 406.086 167.133 418.936 166.211 428.16C165.749 432.781 165.515 436.511 165.396 439.129C165.336 440.439 165.306 441.471 165.29 442.203L165.275 443.065L165.273 443.321V443.374L165.27 443.46C165.265 443.602 165.254 443.875 165.227 444.256C165.171 445.029 165.055 446.22 164.81 447.689C164.31 450.69 163.335 454.479 161.525 458.098C159.742 461.664 157.286 464.808 153.863 467.089C150.526 469.314 145.453 471.273 137.455 471.273C106.727 471.273 81.8182 446.364 81.8182 415.636C81.8182 397.449 90.5292 381.303 104.065 371.127C110.206 366.512 111.441 357.794 106.826 351.652C102.21 345.512 93.4907 344.274 87.3501 348.892C67.1246 364.095 54 388.336 54 415.636C54 461.728 91.364 499.091 137.455 499.091H360V485.182C360 473.918 354.756 456.09 339.615 448.123C334.449 445.402 327.558 443.455 318.273 443.455H290.454C282.774 443.455 276.545 437.226 276.545 429.546C276.545 421.865 282.774 415.636 290.454 415.636H318.273C323.166 415.636 327.8 416.02 332.182 416.752V346.091C332.182 338.41 338.41 332.182 346.091 332.182C353.771 332.182 360 338.41 360 346.091V428.102C381.965 443.939 387.818 470.33 387.818 485.182V499.091H457.364C465.044 499.091 471.273 492.862 471.273 485.182C471.273 460.974 463.041 442.829 448.882 431.031C439.079 422.861 427.359 418.504 415.636 416.685V193.091H429.545C452.59 193.091 471.273 174.409 471.273 151.364V117.512C471.273 107.74 466.146 98.6852 457.767 93.6576L408.189 63.9108C397.379 57.4255 385.011 54 372.407 54H332.182Z" fill="#222"></path>
  <path d="M549.4 436V138H749.8V192H611.4V259.6H741.8V313.6H611.4V382H749.8V436H549.4ZM780.547 516V217.6H836.547V259.2L831.347 247.2C838.547 236.267 848.28 227.867 860.547 222C873.08 215.867 887.347 212.8 903.347 212.8C924.147 212.8 942.947 217.867 959.747 228C976.547 238.133 989.88 251.867 999.747 269.2C1009.61 286.267 1014.55 305.467 1014.55 326.8C1014.55 347.867 1009.61 367.067 999.747 384.4C990.147 401.733 976.947 415.467 960.147 425.6C943.347 435.733 924.28 440.8 902.947 440.8C888.014 440.8 874.147 438.133 861.347 432.8C848.814 427.2 838.68 419.067 830.947 408.4L840.547 396V516H780.547ZM895.747 386.8C906.947 386.8 916.814 384.267 925.347 379.2C933.88 374.133 940.547 367.067 945.347 358C950.147 348.933 952.547 338.533 952.547 326.8C952.547 315.067 950.147 304.8 945.347 296C940.547 286.933 933.88 279.867 925.347 274.8C916.814 269.467 906.947 266.8 895.747 266.8C885.08 266.8 875.48 269.333 866.947 274.4C858.68 279.467 852.147 286.533 847.347 295.6C842.814 304.667 840.547 315.067 840.547 326.8C840.547 338.533 842.814 348.933 847.347 358C852.147 367.067 858.68 374.133 866.947 379.2C875.48 384.267 885.08 386.8 895.747 386.8ZM1049.69 436V217.6H1109.69V436H1049.69ZM1049.69 198V138H1109.69V198H1049.69ZM1260.79 440.8C1238.93 440.8 1219.19 435.867 1201.59 426C1184.26 415.867 1170.39 402.133 1159.99 384.8C1149.86 367.467 1144.79 348 1144.79 326.4C1144.79 304.8 1149.86 285.467 1159.99 268.4C1170.13 251.067 1183.99 237.467 1201.59 227.6C1219.19 217.733 1238.93 212.8 1260.79 212.8C1277.06 212.8 1292.13 215.6 1305.99 221.2C1319.86 226.8 1331.73 234.667 1341.59 244.8C1351.46 254.667 1358.53 266.4 1362.79 280L1310.79 302.4C1307.06 291.467 1300.66 282.8 1291.59 276.4C1282.79 270 1272.53 266.8 1260.79 266.8C1250.39 266.8 1241.06 269.333 1232.79 274.4C1224.79 279.467 1218.39 286.533 1213.59 295.6C1209.06 304.667 1206.79 315.067 1206.79 326.8C1206.79 338.533 1209.06 348.933 1213.59 358C1218.39 367.067 1224.79 374.133 1232.79 379.2C1241.06 384.267 1250.39 386.8 1260.79 386.8C1272.79 386.8 1283.19 383.6 1291.99 377.2C1300.79 370.8 1307.06 362.133 1310.79 351.2L1362.79 374C1358.79 386.8 1351.86 398.267 1341.99 408.4C1332.13 418.533 1320.26 426.533 1306.39 432.4C1292.53 438 1277.33 440.8 1260.79 440.8ZM1402.52 436V138H1516.93C1537.46 138 1555.59 141.6 1571.33 148.8C1587.33 156 1599.86 166.667 1608.93 180.8C1617.99 194.933 1622.53 212.4 1622.53 233.2C1622.53 253.467 1617.86 270.667 1608.53 284.8C1599.46 298.933 1586.93 309.733 1570.93 317.2C1555.19 324.4 1537.19 328 1516.93 328H1464.53V436H1402.52ZM1464.53 274H1517.33C1526.13 274 1533.73 272.267 1540.13 268.8C1546.53 265.333 1551.46 260.533 1554.93 254.4C1558.66 248.267 1560.53 241.2 1560.53 233.2C1560.53 224.933 1558.66 217.733 1554.93 211.6C1551.46 205.467 1546.53 200.667 1540.13 197.2C1533.73 193.733 1526.13 192 1517.33 192H1464.53V274ZM1713.38 440.8C1697.65 440.8 1684.05 438.267 1672.58 433.2C1661.11 428.133 1652.31 420.933 1646.18 411.6C1640.05 402 1636.98 390.667 1636.98 377.6C1636.98 365.333 1639.78 354.533 1645.38 345.2C1650.98 335.6 1659.51 327.6 1670.98 321.2C1682.71 314.8 1697.25 310.267 1714.58 307.6L1781.38 296.8V340.8L1725.38 350.8C1716.85 352.4 1710.31 355.2 1705.78 359.2C1701.25 362.933 1698.98 368.4 1698.98 375.6C1698.98 382.267 1701.51 387.467 1706.58 391.2C1711.65 394.933 1717.91 396.8 1725.38 396.8C1735.25 396.8 1743.91 394.667 1751.38 390.4C1758.85 386.133 1764.58 380.4 1768.58 373.2C1772.85 365.733 1774.98 357.6 1774.98 348.8V292C1774.98 283.733 1771.65 276.8 1764.98 271.2C1758.58 265.6 1749.78 262.8 1738.58 262.8C1727.91 262.8 1718.45 265.733 1710.18 271.6C1702.18 277.467 1696.31 285.2 1692.58 294.8L1644.58 272C1648.85 259.733 1655.65 249.2 1664.98 240.4C1674.31 231.6 1685.51 224.8 1698.58 220C1711.65 215.2 1725.91 212.8 1741.38 212.8C1759.78 212.8 1776.05 216.133 1790.18 222.8C1804.31 229.467 1815.25 238.8 1822.98 250.8C1830.98 262.533 1834.98 276.267 1834.98 292V436H1778.98V400.8L1792.58 398.4C1786.18 408 1779.11 416 1771.38 422.4C1763.65 428.533 1754.98 433.067 1745.38 436C1735.78 439.2 1725.11 440.8 1713.38 440.8ZM1936.58 436L1861.38 217.6H1923.38L1976.18 375.2L1954.58 374.8L2013.38 217.6H2065.38L2123.78 374.8L2102.18 375.2L2154.98 217.6H2217.38L2141.78 436H2089.78L2028.98 267.2H2049.78L1988.58 436H1936.58ZM2329.43 440.8C2305.43 440.8 2284.49 435.2 2266.63 424C2249.03 412.533 2237.03 397.2 2230.63 378L2274.63 357.2C2280.23 368.933 2287.83 378.133 2297.43 384.8C2307.03 391.467 2317.69 394.8 2329.43 394.8C2337.96 394.8 2344.49 393.067 2349.03 389.6C2353.56 386.133 2355.83 381.333 2355.83 375.2C2355.83 372 2355.03 369.333 2353.43 367.2C2351.83 364.8 2349.43 362.667 2346.23 360.8C2343.03 358.933 2339.03 357.333 2334.23 356L2297.03 345.6C2279.16 340.533 2265.43 332.4 2255.83 321.2C2246.23 309.733 2241.43 296.267 2241.43 280.8C2241.43 267.2 2244.89 255.333 2251.83 245.2C2258.76 235.067 2268.49 227.2 2281.03 221.6C2293.56 215.733 2307.96 212.8 2324.23 212.8C2345.56 212.8 2364.23 217.867 2380.23 228C2396.49 237.867 2407.96 251.867 2414.63 270L2370.23 290.8C2367.03 281.733 2361.16 274.533 2352.63 269.2C2344.36 263.6 2334.89 260.8 2324.23 260.8C2316.49 260.8 2310.36 262.4 2305.83 265.6C2301.56 268.8 2299.43 273.2 2299.43 278.8C2299.43 281.733 2300.23 284.4 2301.83 286.8C2303.43 289.2 2305.96 291.333 2309.43 293.2C2313.16 295.067 2317.69 296.8 2323.03 298.4L2357.83 308.8C2375.96 314.133 2389.83 322.267 2399.43 333.2C2409.03 343.867 2413.83 357.067 2413.83 372.8C2413.83 386.4 2410.23 398.267 2403.03 408.4C2396.09 418.533 2386.36 426.533 2373.83 432.4C2361.29 438 2346.49 440.8 2329.43 440.8Z" fill="#222"></path>
</svg>
